<?xml version="1.0" encoding="UTF-8" standalone="no"?>
<!-- Created with Inkscape (http://www.inkscape.org/) -->

<svg
   xmlns:dc="http://purl.org/dc/elements/1.1/"
   xmlns:cc="http://creativecommons.org/ns#"
   xmlns:rdf="http://www.w3.org/1999/02/22-rdf-syntax-ns#"
   xmlns:svg="http://www.w3.org/2000/svg"
   xmlns="http://www.w3.org/2000/svg"
   xmlns:sodipodi="http://sodipodi.sourceforge.net/DTD/sodipodi-0.dtd"
   xmlns:inkscape="http://www.inkscape.org/namespaces/inkscape"
   width="512mm"
   height="512mm"
   viewBox="0 0 512 512"
   version="1.1"
   id="svg290"
   inkscape:version="0.92.3 (2405546, 2018-03-11)"
   sodipodi:docname="262d.svg">
  <defs
     id="defs284" />
  <sodipodi:namedview
     id="base"
     pagecolor="#ffffff"
     bordercolor="#666666"
     borderopacity="1.0"
     inkscape:pageopacity="0.0"
     inkscape:pageshadow="2"
     inkscape:zoom="0.35"
     inkscape:cx="1515.9505"
     inkscape:cy="1017.1429"
     inkscape:document-units="mm"
     inkscape:current-layer="layer1"
     showgrid="false"
     inkscape:window-width="1920"
     inkscape:window-height="1059"
     inkscape:window-x="1680"
     inkscape:window-y="0"
     inkscape:window-maximized="1" />
  <metadata
     id="metadata287">
    <rdf:RDF>
      <cc:Work
         rdf:about="">
        <dc:format>image/svg+xml</dc:format>
        <dc:type
           rdf:resource="http://purl.org/dc/dcmitype/StillImage" />
        <dc:title></dc:title>
      </cc:Work>
    </rdf:RDF>
  </metadata>
  <g
     inkscape:label="Layer 1"
     inkscape:groupmode="layer"
     id="layer1"
     transform="translate(0,215)">
    <path
       inkscape:connector-curvature="0"
       style="fill:#ff0000;fill-opacity:1;stroke-width:0.79691023"
       d="m 438.91347,275.27226 c -8.20241,0.24419 -26.20253,0.89656 -40.00068,1.45006 -48.95986,1.96427 -61.16516,2.16725 -61.69872,1.02665 -0.29919,-0.63433 -5.97487,-9.40373 -12.61735,-19.48687 l -12.07755,-18.33239 -10.06995,-0.12613 c -65.98952,-0.82368 -100.30617,-9.76122 -153.13358,-39.88254 -23.32111,-13.29757 -25.70916,-14.459 -26.83305,-13.05075 -0.63359,0.79295 -2.62726,18.90807 -8.25065,74.96733 l -1.56351,15.58458 -9.61368,0.0221 c -30.616447,0.0756 -89.270795,-1.10033 -90.157158,-1.80784 -0.571989,-0.45906 11.188183,-39.67002 26.135659,-87.13992 14.947544,-47.46975 27.490675,-87.64854 27.873545,-89.286118 0.593257,-2.53553 2.792184,-1.47947 14.817965,7.119208 34.513909,24.67671 78.206119,46.6001 101.571899,50.96592 14.46957,2.70346 45.12938,4.58295 63.47872,3.89099 L 261.891,160.61749 232.56593,115.42051 C 205.65236,73.940165 202.96196,70.321673 199.84887,71.416079 196.76768,72.498972 137.0901,88.722712 135.55409,88.895052 134.85156,88.974252 124.90687,76.863837 102.98655,49.236022 72.914368,11.333741 64.755023,0.7625009 64.615904,-0.4770291 c -0.07989,-0.71132 13.816037,-4.7811697 30.879417,-9.0443232 17.063549,-4.2632277 40.670129,-10.2208617 52.459049,-13.2393517 11.78899,-3.018417 36.24729,-9.283093 54.35134,-13.921632 18.10426,-4.638467 48.77462,-12.388701 68.15633,-17.22267 19.3817,-4.834043 36.40601,-9.407757 37.83247,-10.163955 2.25701,-1.196411 1.09396,-3.348265 -8.9817,-16.613942 -17.35246,-22.846277 -22.50594,-28.348087 -40.30222,-43.024307 -31.51287,-25.98788 -63.11234,-38.89109 -123.30816,-50.352 -6.19611,-1.17969 -24.87383,-3.40546 -41.505809,-4.94638 l -30.239899,-2.80143 42.850798,-4.12257 c 75.43163,-7.25533 97.87936,-7.48207 136.87193,-1.38663 53.28961,8.33029 118.68637,39.85011 163.22754,78.67191 25.04265,21.827263 41.69516,42.866347 57.34685,72.453371 22.35759,42.2631869 30.21019,90.522139 21.51999,132.250141 -6.05758,29.084988 -9.49891,37.620098 -26.60821,65.993188 -7.05768,11.70399 -14.79927,21.68733 -25.1786,32.47036 -8.2431,8.56356 -14.94931,15.91084 -14.90252,16.3275 0.044,0.41654 10.13748,14.54665 22.42366,31.39994 12.2864,16.85328 22.3697,30.91844 22.40761,31.25613 0.0829,0.7683 -6.0262,1.19978 -25.00245,1.76341 z M 341.58399,83.639227 c 7.57139,-13.04473 12.65944,-28.462112 13.21514,-40.041741 0.25448,-5.323534 0.52066,-10.481923 0.59108,-11.462885 0.0733,-0.981842 -1.25282,-1.447647 -2.93931,-1.037208 -17.0738,4.157702 -51.41127,13.687483 -52.0068,14.433196 -0.41945,0.524324 0.83753,3.159727 2.78632,5.858269 24.56825,33.991562 30.63553,42.029924 31.639,41.917354 0.64899,-0.0734 3.67049,-4.42331 6.71406,-9.667646 z"
       id="path2830" />
  </g>
</svg>
